<svg id="图层_1" data-name="图层 1" xmlns="http://www.w3.org/2000/svg" viewBox="0 0 100 100">
  <defs>
    <style>
      .cls-1 {
        fill: #727171;
      }

      .cls-2 {
        fill: #b5b5b6;
        fill-opacity: 0.35;
      }

      .cls-3 {
        fill: #403f3f;
      }

      .cls-4 {
        fill: #3f3f3f;
      }
    </style>
  </defs>
  <title>dashboard_icon</title>
  <path class="cls-1" d="M77.64,14.25,90,17.11a10.2,10.2,0,0,1,7.65,12.24L83.9,89a10.2,10.2,0,0,1-12.24,7.65l-3.24-.75a10.2,10.2,0,0,0,9.21-10.16V14.32S77.64,14.27,77.64,14.25Z"/>
  <path class="cls-2" d="M72.47,29.59a5.1,5.1,0,0,1,5.1,5.1V90.82a5.1,5.1,0,0,1-10.2,0V34.69A5.1,5.1,0,0,1,72.47,29.59Z"/>
  <path class="cls-3" d="M81.66,19.39v-5.1A14.3,14.3,0,0,0,67.37,0h-51A14.3,14.3,0,0,0,2.06,14.29V85.71A14.3,14.3,0,0,0,16.35,100h51A14.3,14.3,0,0,0,81.66,85.71V19.39Zm-71.43-5.1a6.13,6.13,0,0,1,6.12-6.12h51a6.13,6.13,0,0,1,6.12,6.12v5.1c0,2.25-3.06,5-8,7.07-6.25,2.68-14.65,4.15-23.65,4.15s-17.4-1.47-23.65-4.15c-4.93-2.11-8-4.82-8-7.07v-5.1ZM67.37,91.84h-51a6.13,6.13,0,0,1-6.12-6.12V31.49A34.78,34.78,0,0,0,15,34c7.24,3.1,16.78,4.81,26.86,4.81S61.48,37.07,68.72,34a34.92,34.92,0,0,0,4.77-2.47V85.72A6.13,6.13,0,0,1,67.37,91.84Z"/>
  <g>
    <path class="cls-4" d="M14,70.65a.73.73,0,0,1-.23-.54V51.88a.77.77,0,0,1,.76-.76H19a1.23,1.23,0,0,1,1.16.65L25,59.59V51.88a.77.77,0,0,1,.76-.76h5.11a.77.77,0,0,1,.76.76V70.12a.77.77,0,0,1-.76.76H26.36a1.18,1.18,0,0,1-.73-.2,1.92,1.92,0,0,1-.42-.45L20.44,63v7.08a.77.77,0,0,1-.76.76H14.57A.73.73,0,0,1,14,70.65Z"/>
    <path class="cls-4" d="M34.92,70.65a.73.73,0,0,1-.23-.54V51.88a.77.77,0,0,1,.76-.76H49.68a.77.77,0,0,1,.76.76v4.29a.77.77,0,0,1-.76.76H41.61V59h7.51a.77.77,0,0,1,.76.76V64a.77.77,0,0,1-.76.76H41.61v5.31a.77.77,0,0,1-.76.76H35.45A.73.73,0,0,1,34.92,70.65Z"/>
    <path class="cls-4" d="M57.53,70.65a.73.73,0,0,1-.23-.54V57.19H52.62a.77.77,0,0,1-.76-.76V51.88a.77.77,0,0,1,.76-.76H69.16a.77.77,0,0,1,.76.76v4.54a.77.77,0,0,1-.76.76H64.47V70.12a.77.77,0,0,1-.76.76H58.06A.73.73,0,0,1,57.53,70.65Z"/>
  </g>
</svg>
