<svg id="图层_1" data-name="图层 1" xmlns="http://www.w3.org/2000/svg" viewBox="0 0 100 100">
  <defs>
    <style>
      .cls-1 {
        fill: #e75540;
      }

      .cls-2 {
        fill: #2d2d2d;
      }

      .cls-3 {
        fill: #de314e;
      }

      .cls-4 {
        fill: #e71f19;
      }

      .cls-5 {
        fill: #040000;
      }

      .cls-6 {
        fill: #f5c432;
      }

      .cls-7 {
        fill: #f2902d;
      }

      .cls-8 {
        fill: #fff;
      }
    </style>
  </defs>
  <title>未标题-1</title>
  <g>
    <path class="cls-1" d="M78.15,98H21.85A12.56,12.56,0,0,1,9.33,85.52v-71A12.56,12.56,0,0,1,21.85,2h56.3A12.56,12.56,0,0,1,90.67,14.48v71A12.56,12.56,0,0,1,78.15,98Z"/>
    <path class="cls-2" d="M78.15,100H21.85A14.49,14.49,0,0,1,7.37,85.52v-71A14.49,14.49,0,0,1,21.85,0h56.3A14.49,14.49,0,0,1,92.63,14.48v71A14.49,14.49,0,0,1,78.15,100ZM21.85,3.92A10.58,10.58,0,0,0,11.29,14.48v71A10.58,10.58,0,0,0,21.85,96.08h56.3A10.58,10.58,0,0,0,88.71,85.52v-71A10.58,10.58,0,0,0,78.15,3.92Z"/>
    <path class="cls-3" d="M27,48.54a23,23,0,1,0,23-23A23,23,0,0,0,27,48.54Z"/>
    <path class="cls-4" d="M78.15,90.85H21.85A12.56,12.56,0,0,1,9.33,78.33v7.19A12.56,12.56,0,0,0,21.85,98h56.3A12.56,12.56,0,0,0,90.67,85.52V78.34A12.55,12.55,0,0,1,78.15,90.85Zm10.4-80.06L68.77,33.68,66.56,31,87.24,8Zm-76.6,0L31.71,33.68,33.92,31,13.24,8Z"/>
    <path class="cls-1" d="M87.24,6.64,58.13,40.9A10.28,10.28,0,0,1,42.55,41L12.76,6.64"/>
    <path class="cls-5" d="M50.31,46.48a12.2,12.2,0,0,1-9.24-4.21L11.28,7.93a2,2,0,1,1,3-2.57L44,39.69a8.28,8.28,0,0,0,6.27,2.87h0a8.28,8.28,0,0,0,6.28-2.93L85.73,5.37a2,2,0,1,1,3,2.55L59.62,42.17a12.24,12.24,0,0,1-9.25,4.31Z"/>
    <path class="cls-6" d="M28.44,46.42A21.56,21.56,0,1,0,50,24.87,21.56,21.56,0,0,0,28.44,46.42Z"/>
    <path class="cls-5" d="M50,69.94A23.52,23.52,0,1,1,73.52,46.42,23.54,23.54,0,0,1,50,69.94Zm0-43.12a19.6,19.6,0,1,0,19.6,19.6A19.62,19.62,0,0,0,50,26.83Z"/>
    <path class="cls-7" d="M54.27,42.15l7.83,4.27L54.27,50.7,50,58.53,45.73,50.7,37.9,46.42l7.83-4.27L50,34.32Z"/>
    <path class="cls-8" d="M20.35,9.32h-.17l-.17,0-.17,0a.62.62,0,0,1-.16-.06l-.16-.07L19.37,9a1.28,1.28,0,0,1-.13-.1l-.13-.12L19,8.66l-.1-.13a.91.91,0,0,1-.09-.15l-.07-.16s0-.11-.06-.16a.86.86,0,0,1,0-.17.83.83,0,0,1,0-.17c0-.06,0-.12,0-.17a.75.75,0,0,1,0-.17c0-.06,0-.11,0-.17l0-.17a.62.62,0,0,1,.06-.16l.07-.16.09-.15.1-.15.12-.13.13-.12.13-.1L19.51,6l.16-.07.16-.06.17,0,.17,0a1.72,1.72,0,0,1,.36,0l.17,0,.17,0A.62.62,0,0,1,21,5.9l.16.07.15.09.15.1.13.12.12.13.11.15a.91.91,0,0,1,.09.15l.07.16s0,.11.06.16a.86.86,0,0,1,0,.17.83.83,0,0,1,0,.17.87.87,0,0,1,0,.17.75.75,0,0,1,0,.17.83.83,0,0,1,0,.17l0,.17a.62.62,0,0,1-.06.16l-.07.16-.09.15-.11.13-.12.13-.13.12-.15.1-.15.09L21,9.17l-.16.06-.17,0-.17,0Zm26.26.17H27.34a2,2,0,1,1,0-3.92H46.61a2,2,0,0,1,0,3.92Z"/>
    <path class="cls-8" d="M37.54,37.69a2,2,0,0,1-1.22-.43A2,2,0,0,1,36,34.51,17.43,17.43,0,0,1,49.66,28a2,2,0,0,1,0,3.92A13.54,13.54,0,0,0,39.07,37,2,2,0,0,1,37.54,37.69Z"/>
    <path class="cls-8" d="M33.92,44h-.17l-.17,0-.17,0a.62.62,0,0,1-.16-.06l-.16-.07-.15-.09a1.28,1.28,0,0,1-.13-.1l-.13-.12-.12-.13-.1-.13a.91.91,0,0,1-.09-.15l-.07-.16s0-.11-.06-.16a.86.86,0,0,1,0-.17.83.83,0,0,1,0-.17c0-.06,0-.12,0-.17a.81.81,0,0,1,0-.17c0-.06,0-.11,0-.17l0-.17a.62.62,0,0,1,.06-.16l.07-.16.09-.15.1-.15.12-.13.13-.12.13-.1.15-.09.16-.07.16-.06.17,0,.17,0a1.72,1.72,0,0,1,.36,0l.17,0,.17,0a.62.62,0,0,1,.16.06l.16.07.15.09.15.1.13.12.12.13.11.15a.91.91,0,0,1,.09.15l.07.16s0,.11.06.16a.86.86,0,0,1,0,.17.83.83,0,0,1,0,.17.87.87,0,0,1,0,.17.81.81,0,0,1,0,.17.83.83,0,0,1,0,.17l0,.17a.62.62,0,0,1-.06.16l-.07.16-.09.15-.11.13-.12.13-.13.12-.15.1-.15.09-.16.07-.16.06-.17,0-.17,0Z"/>
    <path class="cls-5" d="M78.15,100H21.85A14.49,14.49,0,0,1,7.37,85.52v-71A14.49,14.49,0,0,1,21.85,0h56.3A14.49,14.49,0,0,1,92.63,14.48v71A14.49,14.49,0,0,1,78.15,100ZM21.85,3.92A10.58,10.58,0,0,0,11.29,14.48v71A10.58,10.58,0,0,0,21.85,96.08h56.3A10.58,10.58,0,0,0,88.71,85.52v-71A10.58,10.58,0,0,0,78.15,3.92Z"/>
  </g>
  <g>
    <path class="cls-5" d="M36.76,42.31a1,1,0,0,1,1.69-.63l4.9,5.72V42.31a.91.91,0,0,1,.27-.67,1,1,0,0,1,1.37,0,.91.91,0,0,1,.27.67V50a.89.89,0,0,1-.63.91,1,1,0,0,1-.33.05.91.91,0,0,1-.73-.34l-4.9-5.71V50a.91.91,0,0,1-.27.67,1,1,0,0,1-1.37,0,.91.91,0,0,1-.27-.67Z"/>
    <path class="cls-5" d="M49.11,43.27v2.47h4.8a1,1,0,1,1,0,1.92h-4.8V50a.91.91,0,0,1-.27.67.94.94,0,0,1-.69.29,1,1,0,0,1-1-1V42.31a.94.94,0,0,1,.29-.69.91.91,0,0,1,.67-.27h6a1,1,0,1,1,0,1.92Z"/>
    <path class="cls-5" d="M56.52,43.27a1,1,0,1,1,0-1.92H63.1a1,1,0,1,1,0,1.92H60.77V50a.91.91,0,0,1-.27.67.94.94,0,0,1-.69.29,1,1,0,0,1-1-1V43.27Z"/>
  </g>
</svg>
