<svg id="图层_1" data-name="图层 1" xmlns="http://www.w3.org/2000/svg" viewBox="0 0 100 100">
  <defs>
    <style>
      .cls-1 {
        fill: #e75540;
      }

      .cls-2 {
        fill: #2d2d2d;
      }

      .cls-3 {
        fill: #e71f19;
      }

      .cls-4 {
        fill: #040000;
      }

      .cls-5 {
        fill: #e84b60;
      }

      .cls-6 {
        fill: #de314e;
      }

      .cls-7 {
        fill: #f5c432;
      }

      .cls-8 {
        fill: #f5ab18;
      }

      .cls-9 {
        fill: #fff;
      }

      .cls-10 {
        fill: #f2902d;
      }

      .cls-11 {
        fill: #f5e42a;
      }
    </style>
  </defs>
  <title>未标题-1</title>
  <path class="cls-1" d="M91.63,62.45a40.43,40.43,0,0,1-3.28,16c-8.73,23.27-33.6,19.9-55.58,19.19C23.19,97.27,16,88.26,11.59,78.4A37.93,37.93,0,0,1,9.17,70.7a40.72,40.72,0,0,1-.85-8.26c0-22.65,18.65-41,41.65-41S91.63,39.8,91.63,62.45Z"/>
  <path class="cls-2" d="M50.91,100c-4.08,0-8.22-.17-12.31-.36-1.94-.08-3.95-.17-5.89-.23-4.92-.16-9.56-2.37-13.77-6.54a45.63,45.63,0,0,1-9-13.72,39.17,39.17,0,0,1-2.54-8.06,42.58,42.58,0,0,1-.89-8.64A42,42,0,0,1,9.93,45.76a42.59,42.59,0,0,1,9.33-13.62A43.35,43.35,0,0,1,33.08,23a43.88,43.88,0,0,1,47.67,9.18,42.78,42.78,0,0,1,9.33,13.62,42.31,42.31,0,0,1,0,33.33C86.3,89.16,79.3,95.4,68.67,98.17A71.86,71.86,0,0,1,50.91,100ZM50,23.28C28,23.28,10.17,40.84,10.17,62.45A39.33,39.33,0,0,0,11,70.34a36.37,36.37,0,0,0,2.3,7.32c2.37,5.33,9,17.75,19.55,18.09l5.92.23c10,.43,20.34.87,28.94-1.37,9.52-2.48,15.54-7.83,18.93-16.85l0-.08a38.46,38.46,0,0,0,3.12-15.23C89.79,40.84,71.92,23.28,50,23.28Z"/>
  <path class="cls-3" d="M53.26,21.57A41.12,41.12,0,0,1,83.46,61a40.43,40.43,0,0,1-3.28,16C71.75,99.44,48.26,97.06,26.86,96.22a15.87,15.87,0,0,0,5.91,1.36c22,.71,46.84,4.08,55.58-19.19a39.67,39.67,0,0,0,2.43-7.69,40.72,40.72,0,0,0,.85-8.26C91.63,40.88,74.73,23.21,53.26,21.57Z"/>
  <path class="cls-4" d="M50.91,100c-4.08,0-8.22-.17-12.31-.36-1.94-.08-3.95-.17-5.89-.23-4.92-.16-9.56-2.37-13.77-6.54a45.63,45.63,0,0,1-9-13.72,39.17,39.17,0,0,1-2.54-8.06,42.58,42.58,0,0,1-.89-8.64A42,42,0,0,1,9.93,45.76a42.59,42.59,0,0,1,9.33-13.62A43.35,43.35,0,0,1,33.08,23a43.88,43.88,0,0,1,47.67,9.18,42.78,42.78,0,0,1,9.33,13.62,42.31,42.31,0,0,1,0,33.33C86.3,89.16,79.3,95.4,68.67,98.17A71.86,71.86,0,0,1,50.91,100ZM50,23.28C28,23.28,10.17,40.84,10.17,62.45A39.33,39.33,0,0,0,11,70.34a36.37,36.37,0,0,0,2.3,7.32c2.37,5.33,9,17.75,19.55,18.09l5.92.23c10,.43,20.34.87,28.94-1.37,9.52-2.48,15.54-7.83,18.93-16.85l0-.08a38.46,38.46,0,0,0,3.12-15.23C89.79,40.84,71.92,23.28,50,23.28Z"/>
  <path class="cls-5" d="M16.79,15.55A37.67,37.67,0,0,0,28.24,33.43c5.29,4.57,45.58.77,45.58.77S85.6,21.57,83.56,13.42,15,9.67,16.79,15.55Z"/>
  <path class="cls-2" d="M45,37.52c-13.14,0-16.57-1.48-18-2.7A39.41,39.41,0,0,1,15,16.1a2.79,2.79,0,0,1,.74-2.8c.85-.89,2.86-2.23,10.5-3.6A172.82,172.82,0,0,1,44.21,7.65c11.84-.81,27.32-.91,35.3,1.21,2.21.59,5.22,1.66,5.83,4.11,1,3.89-.49,8.9-4.35,14.88a59,59,0,0,1-5.83,7.59L74.7,36,74,36c-.1,0-10.25,1-20.91,1.33C50,37.47,47.38,37.52,45,37.52ZM18.75,15.62A35.75,35.75,0,0,0,29.45,32c.32.28,1.85,1.2,8.27,1.6,3.95.25,9.06.26,15.24,0,8.95-.31,17.53-1,20-1.25,3.32-3.73,10.21-13,8.83-18.54-.07-.12-1-1.41-7.65-2.3-7.94-1.06-20.74-1.06-33.4,0a147.5,147.5,0,0,0-15.25,2C21.06,14.48,19.36,15.25,18.75,15.62Z"/>
  <path class="cls-6" d="M81.77,13C80.91,9.52,68.5,8.33,54.6,8.53,66,8.72,75.2,10,75.94,13c2,8.14-9.74,20.78-9.74,20.78S52.8,35,40.44,35.21C54,35.45,72,33.76,72,33.76S83.8,21.12,81.77,13Z"/>
  <path class="cls-6" d="M77.54,11.1c0,.28,0,.55,0,.83,0-.2,0-.39,0-.6A.77.77,0,0,0,77.54,11.1Z"/>
  <path class="cls-2" d="M79.35,12.09l-3.67-.23c0-.25,0-.52,0-.78l3.68,0v.3C79.39,11.58,79.38,11.82,79.35,12.09Z"/>
  <path class="cls-6" d="M67.82,6.46a30.59,30.59,0,0,0-9,1.27,30.21,30.21,0,0,0-9-1.27,30.59,30.59,0,0,0-9,1.27,30.21,30.21,0,0,0-9-1.27c-8.7,0-15.75,3.2-15.75,7.13s7.05,7.13,15.75,7.13a30.59,30.59,0,0,0,9-1.27,30.21,30.21,0,0,0,9,1.27,30.59,30.59,0,0,0,9-1.27,30.21,30.21,0,0,0,9,1.27c8.36,0,15.21-3,15.71-6.68,0-.21,0-.43,0-.63C83.36,9.56,76.39,6.46,67.82,6.46Z"/>
  <path class="cls-4" d="M67.82,22.58a33.06,33.06,0,0,1-9-1.18,32.56,32.56,0,0,1-9,1.18,33.06,33.06,0,0,1-9-1.18,32.56,32.56,0,0,1-9,1.18c-10,0-17.59-3.85-17.59-9s7.56-9,17.59-9a33.06,33.06,0,0,1,9,1.18,32.56,32.56,0,0,1,9-1.18,33,33,0,0,1,9,1.18,32.56,32.56,0,0,1,9-1.18A30,30,0,0,1,79.56,6.82c3.62,1.6,5.69,3.91,5.83,6.5v.14q0,.36,0,.72v.13C84.7,19.09,77.33,22.58,67.82,22.58Zm-9-5,.55.17a28.63,28.63,0,0,0,8.42,1.18c8.42,0,13.52-3,13.88-5,0-.13,0-.25,0-.39-.21-2.17-5.53-5.15-13.89-5.15a28.74,28.74,0,0,0-8.42,1.18l-.55.17-.55-.17A28.63,28.63,0,0,0,49.88,8.3a28.69,28.69,0,0,0-8.42,1.18l-.55.17-.55-.17A28.63,28.63,0,0,0,31.94,8.3a25.9,25.9,0,0,0-10.37,1.92C19.39,11.21,18,12.5,18,13.6S19.39,16,21.57,17a25.9,25.9,0,0,0,10.37,1.92,28.74,28.74,0,0,0,8.42-1.18l.55-.17.55.17a28.63,28.63,0,0,0,8.42,1.18A28.74,28.74,0,0,0,58.3,17.7Z"/>
  <path class="cls-7" d="M31.47.66A12.52,12.52,0,1,0,44,13.17,12.52,12.52,0,0,0,31.47.66Zm0,17.85-5.33-5.33,5.33-5.33,5.33,5.33Z"/>
  <path class="cls-2" d="M31.47,26.36A13.2,13.2,0,0,1,18.29,13.18a13.18,13.18,0,1,1,22.5,9.32A13.06,13.06,0,0,1,31.47,26.36Zm0-25A11.86,11.86,0,1,0,43.33,13.18,11.86,11.86,0,0,0,31.47,1.32Zm0,18.12-6.26-6.26,6.26-6.26,6.26,6.26Zm-4.39-6.26,4.39,4.39,4.39-4.39L31.47,8.79Z"/>
  <path class="cls-8" d="M39.66,3.72A12.52,12.52,0,0,1,21.92,21.3,12.52,12.52,0,1,0,39.66,3.72Z"/>
  <path class="cls-9" d="M24.22,6.76a.66.66,0,0,1-.47-1.12A11.7,11.7,0,0,1,29.91,2.3a.66.66,0,0,1,.26,1.3,10.48,10.48,0,0,0-5.46,3A.79.79,0,0,1,24.22,6.76Z"/>
  <path class="cls-10" d="M31.47,5l-.71-1.25.71-1.27.7,1.27Zm-.68,17.62.7-1.25.7,1.25-.7,1.27Zm10.12-8.73-1.25-.71,1.25-.7,1.27.7Zm-20.15-.67,1.27-.7,1.25.7-1.25.7Z"/>
  <path class="cls-10" d="M31.47,5l-.71-1.25.71-1.27.7,1.27Zm-.68,17.62.7-1.25.7,1.25-.7,1.27Zm10.12-8.73-1.25-.71,1.25-.7,1.27.7Zm-20.15-.67,1.27-.7,1.25.7-1.25.7Z"/>
  <path class="cls-9" d="M22.79,7.27a.45.45,0,0,0,.9,0h0a.45.45,0,0,0-.9,0Z"/>
  <path class="cls-2" d="M31.47,26.36A13.2,13.2,0,0,1,18.29,13.18a13.18,13.18,0,1,1,22.5,9.32A13.06,13.06,0,0,1,31.47,26.36Zm0-25A11.86,11.86,0,1,0,43.33,13.18,11.86,11.86,0,0,0,31.47,1.32Zm0,18.12-6.26-6.26,6.26-6.26,6.26,6.26Zm-4.39-6.26,4.39,4.39,4.39-4.39L31.47,8.79Z"/>
  <path class="cls-7" d="M40,11.61a12.52,12.52,0,1,0,17.7,0A12.52,12.52,0,0,0,40,11.61ZM52.59,24.22H45.05V16.69h7.53Z"/>
  <path class="cls-2" d="M58.14,29.78A13.16,13.16,0,1,1,62,20.46,13.1,13.1,0,0,1,58.14,29.78Zm-17.7-17.7a11.86,11.86,0,1,0,16.77,0A11.87,11.87,0,0,0,40.44,12.08Zm12.81,12.8H44.41V16h8.85Zm-7.53-1.31h6.21V17.36H45.72Z"/>
  <path class="cls-8" d="M47.93,8a12.52,12.52,0,0,1-.1,25,12.52,12.52,0,1,0,.1-25Z"/>
  <path class="cls-9" d="M39.16,21A.66.66,0,0,1,38,20.59a11.79,11.79,0,0,1,2-6.72.66.66,0,1,1,1.1.74,10.55,10.55,0,0,0-1.76,6A.72.72,0,0,1,39.16,21Z"/>
  <path class="cls-10" d="M43,14.68l-1.39-.4-.39-1.39,1.39.4ZM55,27.61l-.39-1.39,1.39.4L56.41,28Zm1-13.33-1.39.39L55,13.27l1.39-.39ZM41.28,28.05l.39-1.39,1.39-.39-.39,1.39Z"/>
  <path class="cls-10" d="M43,14.68l-1.39-.4-.39-1.39,1.39.4ZM55,27.61l-.39-1.39,1.39.4L56.41,28Zm1-13.33-1.39.39L55,13.27l1.39-.39ZM41.28,28.05l.39-1.39,1.39-.39-.39,1.39Z"/>
  <path class="cls-9" d="M38.51,22.41a.45.45,0,1,0,0-.63A.45.45,0,0,0,38.51,22.41Z"/>
  <path class="cls-2" d="M58.14,29.78A13.16,13.16,0,1,1,62,20.46,13.1,13.1,0,0,1,58.14,29.78Zm-17.7-17.7a11.86,11.86,0,1,0,16.77,0A11.87,11.87,0,0,0,40.44,12.08Zm12.81,12.8H44.41V16h8.85Zm-7.53-1.31h6.21V17.36H45.72Z"/>
  <path class="cls-7" d="M69,4a12.52,12.52,0,1,0,12.3,12.74A12.52,12.52,0,0,0,69,4Zm-.32,17.84-5.22-5.42,5.42-5.22,5.22,5.42Z"/>
  <path class="cls-2" d="M68.58,29.69A13.18,13.18,0,0,1,59.66,7,13.18,13.18,0,0,1,82,16.75,13.18,13.18,0,0,1,68.58,29.69Zm.45-25A11.85,11.85,0,1,0,80.66,16.71,11.87,11.87,0,0,0,69,4.65ZM68.7,22.76l-6.14-6.37,6.37-6.14,6.14,6.37Zm-4.28-6.34,4.31,4.46,4.46-4.31-4.31-4.46Z"/>
  <path class="cls-8" d="M77.18,7.19a12.52,12.52,0,0,1-18,17.26,12.52,12.52,0,1,0,18-17.26Z"/>
  <path class="cls-9" d="M61.69,10a.66.66,0,0,1-.46-1.13,11.79,11.79,0,0,1,6.21-3.24.66.66,0,0,1,.24,1.3,10.53,10.53,0,0,0-5.52,2.88A.67.67,0,0,1,61.69,10Z"/>
  <path class="cls-10" d="M69,8.33l-.69-1.28L69,5.8l.69,1.28Zm-1,17.6.72-1.24.69,1.27-.74,1.25Zm10.28-8.55L77,16.64,78.27,16l1.25.72Zm-20.14-1,1.28-.68,1.24.72-1.27.69Z"/>
  <path class="cls-10" d="M69,8.33l-.69-1.28L69,5.8l.69,1.28Zm-1,17.6.72-1.24.69,1.27-.74,1.25Zm10.28-8.55L77,16.64,78.27,16l1.25.72Zm-20.14-1,1.28-.68,1.24.72-1.27.69Z"/>
  <path class="cls-9" d="M60.69,10.9a.45.45,0,0,0,0-.9h0a.45.45,0,0,0,0,.9Z"/>
  <path class="cls-2" d="M68.58,29.69A13.18,13.18,0,0,1,59.66,7,13.18,13.18,0,0,1,82,16.75,13.18,13.18,0,0,1,68.58,29.69Zm.45-25A11.85,11.85,0,1,0,80.66,16.71,11.87,11.87,0,0,0,69,4.65ZM68.7,22.76l-6.14-6.37,6.37-6.14,6.14,6.37Zm-4.28-6.34,4.31,4.46,4.46-4.31-4.31-4.46Z"/>
  <path class="cls-1" d="M83.56,13.42c0,.21,0,.43,0,.63-.52,3.73-7.35,6.68-15.71,6.68a30.59,30.59,0,0,1-9-1.27,30.21,30.21,0,0,1-9,1.27,30.59,30.59,0,0,1-9-1.27,30.21,30.21,0,0,1-9,1.27c-7.2,0-13.27-2.19-15.15-5.18A37.69,37.69,0,0,0,28.24,33.43c5.29,4.57,45.58.77,45.58.77S85.6,21.57,83.56,13.42Z"/>
  <path class="cls-4" d="M45,37.52c-13.14,0-16.57-1.48-18-2.7A39.41,39.41,0,0,1,15,16.1a1.85,1.85,0,0,1,3.32-1.53c1.31,2.09,6.52,4.31,13.6,4.31a28.74,28.74,0,0,0,8.42-1.18,1.81,1.81,0,0,1,1.1,0,28.63,28.63,0,0,0,8.42,1.18,28.74,28.74,0,0,0,8.42-1.18,1.81,1.81,0,0,1,1.1,0,28.63,28.63,0,0,0,8.42,1.18c8.42,0,13.52-3,13.88-5,0-.15,0-.31,0-.47A1.84,1.84,0,0,1,85.38,13c1,3.89-.49,8.9-4.35,14.88a59,59,0,0,1-5.83,7.59A1.79,1.79,0,0,1,74,36c-.1,0-10.25,1-20.91,1.33C50,37.47,47.38,37.52,45,37.52ZM20.75,20.62A34.48,34.48,0,0,0,29.45,32c.32.28,1.85,1.2,8.26,1.6,3.93.25,9.06.26,15.23,0,8.95-.31,17.54-1,20-1.25,2.33-2.62,6.43-7.95,8.19-12.84-3.19,1.85-7.9,3-13.31,3a33.06,33.06,0,0,1-9-1.18,32.56,32.56,0,0,1-9,1.18,33.06,33.06,0,0,1-9-1.18,32.56,32.56,0,0,1-9,1.18A31.3,31.3,0,0,1,21.76,21C21.42,20.88,21.07,20.75,20.75,20.62Z"/>
  <path class="cls-7" d="M24,28.35A68.89,68.89,0,0,0,51.77,32.9,91.61,91.61,0,0,0,77.63,28l1.94,5.57S68.3,40.78,50.06,40.73a63.07,63.07,0,0,1-29.43-7.38C20,32.93,24,28.35,24,28.35Z"/>
  <path class="cls-2" d="M50.21,42.57h-.15a65.79,65.79,0,0,1-21.28-3.65,52,52,0,0,1-9.12-4,2,2,0,0,1-.93-1.41c-.15-1,.36-2,2.08-4.16.91-1.14,1.82-2.16,1.85-2.21l.89-1,1.22.52a67.8,67.8,0,0,0,26.92,4.39A91.35,91.35,0,0,0,77,26.33l1.77-.68,3.06,8.73-1.23.78a44,44,0,0,1-8.29,3.76,67.44,67.44,0,0,1-22.07,3.65ZM23,32.53a62.44,62.44,0,0,0,27.08,6.35h.14a59.69,59.69,0,0,0,27.12-6.13l-.83-2.38a97.84,97.84,0,0,1-24.64,4.35,71.17,71.17,0,0,1-27.28-4.19C24,31.26,23.41,32,23,32.53Z"/>
  <path class="cls-10" d="M27.29,31.09,30.8,30l2.07,6.63-3.51,1.1Z"/>
  <path class="cls-10" d="M41.66,41.63c-.56-.3-1.31-.9-3.73-4.53-1.18-1.78-2.21-3.47-2.25-3.54l3.14-1.92a53.31,53.31,0,0,0,4.7,6.83l-.13-.08Z"/>
  <path class="cls-10" d="M55.07,42.55c-1.71-.25-3.49-1.78-5.54-4.82a43.72,43.72,0,0,1-2.35-3.92l3.28-1.68a37.23,37.23,0,0,0,2.09,3.51c2.07,3,3,3.27,3.06,3.27Z"/>
  <path class="cls-10" d="M67,40.38c-1.43-.17-2.86-1.43-4.8-4.19C61,34.51,60.06,32.87,60,32.8L63.24,31S64,32.4,65,33.84c1.76,2.56,2.52,2.92,2.55,2.93a.49.49,0,0,0-.15,0Z"/>
  <path class="cls-10" d="M74.68,37.07c-1.17,0-2.07-1-3.51-3.09-.84-1.21-1.56-2.42-1.6-2.47l3.14-1.91a27.18,27.18,0,0,0,2.85,4,1.53,1.53,0,0,0-1.12-.23l.6,3.63Z"/>
  <path class="cls-4" d="M50.21,42.57h-.15a65.79,65.79,0,0,1-21.28-3.65,52,52,0,0,1-9.12-4,2,2,0,0,1-.93-1.41c-.15-1,.36-2,2.08-4.16.91-1.14,1.82-2.16,1.85-2.21l.89-1,1.22.52a67.8,67.8,0,0,0,26.92,4.39A91.35,91.35,0,0,0,77,26.33l1.77-.68,3.06,8.73-1.23.78a44,44,0,0,1-8.29,3.76,67.44,67.44,0,0,1-22.07,3.65ZM23,32.53a62.44,62.44,0,0,0,27.08,6.35h.14a59.69,59.69,0,0,0,27.12-6.13l-.83-2.38a97.84,97.84,0,0,1-24.64,4.35,71.17,71.17,0,0,1-27.28-4.19C24,31.26,23.41,32,23,32.53Z"/>
  <path class="cls-11" d="M47.17,85.54,32.7,71.07a5.76,5.76,0,0,1,0-8.16L47.17,48.45a5.76,5.76,0,0,1,8.16,0L69.8,62.92a5.76,5.76,0,0,1,0,8.16L55.33,85.54A5.76,5.76,0,0,1,47.17,85.54Z"/>
  <path class="cls-4" d="M18.82,57.73c-.82-2.36-.72-7,.29-14.09.72-5.07,1.64-9.45,1.68-9.64l3.6.76c-1.4,6.69-3.22,18.52-2.09,21.76Z"/>
  <path class="cls-7" d="M16,57.13a4.06,4.06,0,1,0,4.06-4.06A4.06,4.06,0,0,0,16,57.13Z"/>
  <path class="cls-4" d="M20.11,62.11a5,5,0,1,1,5-5A5,5,0,0,1,20.11,62.11Zm0-8.12a3.14,3.14,0,1,0,3.14,3.14A3.14,3.14,0,0,0,20.11,54Z"/>
  <path class="cls-9" d="M18.58,57.05a.93.93,0,0,0,1.32-1.32h0a.93.93,0,0,0-1.32,1.32Z"/>
  <g>
    <path class="cls-4" d="M35.79,70a2.45,2.45,0,0,1-2.46-2.46V65.08a.63.63,0,0,1,.19-.46.61.61,0,0,1,.45-.18.63.63,0,0,1,.64.64V67.5a1.16,1.16,0,0,0,1.17,1.17,1.13,1.13,0,0,0,.83-.34A1.15,1.15,0,0,0,37,67.5V65.08a.63.63,0,0,1,.19-.46.61.61,0,0,1,.45-.18.63.63,0,0,1,.64.64V67.5A2.45,2.45,0,0,1,35.79,70Z"/>
    <path class="cls-4" d="M39.9,70a.63.63,0,0,1-.64-.64V65.08a.6.6,0,0,1,.42-.61.58.58,0,0,1,.71.18l2.49,2.92V65.08a.63.63,0,0,1,.19-.46.61.61,0,0,1,.45-.18.63.63,0,0,1,.64.64v4.23a.6.6,0,0,1-.41.61.79.79,0,0,1-.23,0,.61.61,0,0,1-.49-.23l-2.49-2.91v2.49a.63.63,0,0,1-.64.64Z"/>
    <path class="cls-4" d="M45.92,70a.63.63,0,0,1-.64-.64V65.08a.64.64,0,1,1,1.29,0v4.23a.63.63,0,0,1-.64.64Z"/>
    <path class="cls-4" d="M48.31,70a.63.63,0,0,1-.46-.19.61.61,0,0,1-.18-.45V65.08a.63.63,0,0,1,.64-.64h2.12a2,2,0,0,1,0,4H49v.86a.61.61,0,0,1-.18.45A.63.63,0,0,1,48.31,70Zm.64-2.8h1.47a.72.72,0,0,0,0-1.44H49Z"/>
    <path class="cls-4" d="M52.84,69.88a.62.62,0,0,1-.32-.37.63.63,0,0,1,0-.5l2.12-4.23a.6.6,0,0,1,.58-.32.59.59,0,0,1,.57.32L57.94,69a.63.63,0,0,1,0,.5.62.62,0,0,1-.32.37.63.63,0,0,1-.86-.28l-.35-.7H54.05l-.35.7a.62.62,0,0,1-.37.32A.64.64,0,0,1,52.84,69.88Zm1.86-2.27h1.09l-.54-1.1Z"/>
    <path class="cls-4" d="M58.59,66.14A1.48,1.48,0,0,1,59.13,65a2.48,2.48,0,0,1,1.69-.53,2.93,2.93,0,0,1,2,.64.59.59,0,0,1,.21.44.63.63,0,0,1-.16.47.59.59,0,0,1-.44.21A.62.62,0,0,1,62,66a1.24,1.24,0,0,0-.42-.22,2.52,2.52,0,0,0-.74-.1,1.67,1.67,0,0,0-.68.12q-.27.11-.27.29t.37.29l.33.08.31,0H61l.15,0,.34.06a3,3,0,0,1,.76.24,1.47,1.47,0,0,1,.41,2.51,2.71,2.71,0,0,1-1.85.56,3.21,3.21,0,0,1-2.15-.65.65.65,0,0,1-.23-.44.63.63,0,0,1,.16-.47.63.63,0,0,1,.9-.06,1.46,1.46,0,0,0,.49.23,2.94,2.94,0,0,0,.84.11,2.1,2.1,0,0,0,.81-.13q.29-.12.29-.28T61.47,68l-.39-.08-.32,0A2.86,2.86,0,0,1,59,67.17,1.4,1.4,0,0,1,58.59,66.14Z"/>
    <path class="cls-4" d="M63.93,66.14A1.48,1.48,0,0,1,64.47,65a2.48,2.48,0,0,1,1.69-.53,2.93,2.93,0,0,1,2,.64.59.59,0,0,1,.21.44.63.63,0,0,1-.16.47.59.59,0,0,1-.44.21.62.62,0,0,1-.47-.16,1.24,1.24,0,0,0-.42-.22,2.52,2.52,0,0,0-.74-.1,1.67,1.67,0,0,0-.68.12q-.27.11-.27.29t.37.29l.33.08.31,0h.12l.15,0,.34.06a3,3,0,0,1,.76.24A1.47,1.47,0,0,1,68,69.39a2.71,2.71,0,0,1-1.85.56A3.21,3.21,0,0,1,64,69.3a.65.65,0,0,1-.23-.44.63.63,0,0,1,.16-.47.63.63,0,0,1,.9-.06,1.46,1.46,0,0,0,.49.23,2.94,2.94,0,0,0,.84.11,2.1,2.1,0,0,0,.81-.13q.29-.12.29-.28T66.81,68l-.39-.08-.32,0a2.86,2.86,0,0,1-1.76-.67A1.4,1.4,0,0,1,63.93,66.14Z"/>
  </g>
</svg>
