<?xml version="1.0" encoding="UTF-8"?>
<svg width="66px" height="66px" viewBox="0 0 66 66" version="1.1" xmlns="http://www.w3.org/2000/svg" xmlns:xlink="http://www.w3.org/1999/xlink">
    <title>编组 24备份</title>
    <g id="0727红包/内页" stroke="none" stroke-width="1" fill="none" fill-rule="evenodd">
        <g id="red-packet/中文" transform="translate(-73.000000, -315.000000)">
            <g id="编组-24备份" transform="translate(73.000000, 315.000000)">
                <rect id="矩形备份-4" fill="#FFFFFF" x="0" y="0" width="66" height="66" rx="16"></rect>
                <g id="编组-17" transform="translate(10.000000, 10.000000)">
                    <rect id="矩形" x="0" y="0" width="46" height="46"></rect>
                    <g id="钱包备份" transform="translate(3.972559, 5.983450)" fill-rule="nonzero">
                        <g id="编组-19">
                            <path d="M6.52173886,34.0331 C2.91973232,34.0331 0,31.3559 0,28.0531 L0,5.98 C0,2.6772 2.91973232,0 6.52173886,0 L31.5331389,0 C35.1351454,0 38.0548826,2.6772 38.0548826,5.98 L38.0548826,28.0554 C38.0573861,31.3559 35.1376538,34.0331 31.5356472,34.0331 L6.52173886,34.0331 Z" id="路径" fill="#9999FF"></path>
                            <path d="M38.0548826,8.6871 L24.4537648,8.6871 C20.057643,8.6871 16.4923882,12.4177 16.4923882,17.0177 C16.4923882,21.6177 20.057643,25.3483 24.4537648,25.3483 L38.0548826,25.3483 L38.0548826,8.6871 Z" id="路径" fill="#7053FA"></path>
                            <path d="M21.7974879,17.0177 C21.7974879,18.9680938 23.3785944,20.5492003 25.3289882,20.5492003 C27.279382,20.5492003 28.8604885,18.9680938 28.8604885,17.0177 C28.8604885,15.0673062 27.279382,13.4861997 25.3289882,13.4861997 C23.3785944,13.4861997 21.7974879,15.0673062 21.7974879,17.0177 Z" id="路径" fill="#FFFFFF"></path>
                        </g>
                    </g>
                </g>
            </g>
        </g>
    </g>
</svg>