<svg id="图层_1" data-name="图层 1" xmlns="http://www.w3.org/2000/svg" viewBox="0 0 66 66"><defs><style>.cls-1{fill:#fff;}.cls-2{fill:#6bc839;}</style></defs><title>嘟嘟嘟</title><g id="red-packet_中文" data-name="red-packet/中文"><g id="编组-25"><rect id="矩形" class="cls-1" width="66" height="66" rx="16"/></g></g><path class="cls-2" d="M45.94,52H20.05A6,6,0,0,1,14,46V20.05A6,6,0,0,1,20.05,14H45.94A6,6,0,0,1,52,20.05V46A6,6,0,0,1,45.94,52Z"/><path class="cls-1" d="M38,28.46a3.11,3.11,0,0,1,1,.11c-.89-4-5.15-6.95-10-6.95-5.49,0-9.86,3.7-9.86,8.41,0,2.69,1.45,4.93,3.92,6.72l-1,3L25.54,38a19,19,0,0,0,3.48.45h.9a6.43,6.43,0,0,1-.34-2.13C29.58,31.94,33.28,28.46,38,28.46Zm-5.27-2.69a1.24,1.24,0,0,1,0,2.47A1.31,1.31,0,0,1,31.26,27C31.15,26.22,31.93,25.77,32.72,25.77Zm-6.95,2.47A1.31,1.31,0,0,1,24.31,27a1.37,1.37,0,0,1,1.46-1.23,1.24,1.24,0,0,1,0,2.47Z"/><path class="cls-1" d="M47.07,36.19c0-3.92-3.93-7.17-8.41-7.17-4.71,0-8.41,3.25-8.41,7.17s3.7,7.18,8.41,7.18a14.23,14.23,0,0,0,3-.45l2.69,1.46-.78-2.47C45.61,40.45,47.07,38.44,47.07,36.19ZM35.86,35a1,1,0,0,1,0-2c.78,0,1.23.45,1.23,1S36.64,35,35.86,35Zm5.49,0a1,1,0,0,1,0-2c.78,0,1.23.45,1.23,1S42.13,35,41.35,35Z"/></svg>